<?xml version="1.0" encoding="UTF-8"?>
<svg version="1.1" xmlns="http://www.w3.org/2000/svg" width="800" height="800">
<path d="M0 0 C0 60.39 0 120.78 0 183 C43.89 183 87.78 183 133 183 C131.59722874 187.20831378 128.55585553 188.59894191 125 190.9375 C123.5292308 191.92601721 122.05920224 192.91563709 120.58984375 193.90625 C119.82913574 194.41671875 119.06842773 194.9271875 118.28466797 195.453125 C114.67470189 197.89731661 111.11816057 200.41523561 107.5625 202.9375 C106.85649658 203.43709229 106.15049316 203.93668457 105.4230957 204.45141602 C103.99110387 205.46478809 102.55938134 206.47854082 101.12792969 207.49267578 C97.64985459 209.95637882 94.1690515 212.41621278 90.6875 214.875 C89.99406494 215.36476318 89.30062988 215.85452637 88.58618164 216.35913086 C82.2195521 220.85206707 75.83445719 225.3184485 69.44873047 229.78417969 C61.28153281 235.49790894 53.13857528 241.24560744 45 247 C34.97206828 254.09026502 24.93028316 261.15988551 14.86206055 268.19287109 C14.06968994 268.74668457 13.27731934 269.30049805 12.4609375 269.87109375 C11.76790527 270.35505615 11.07487305 270.83901855 10.36083984 271.33764648 C9.19222412 272.16051147 9.19222412 272.16051147 8 273 C7.42594453 273.28339989 6.85188906 273.56679977 6.26043797 273.85878754 C4.11094788 275.05382871 2.61862744 276.13757527 1 278 C0.01537013 281.76740647 0.22012243 285.43093904 0.36743164 289.30102539 C0.38235657 290.44315491 0.39728149 291.58528442 0.41265869 292.76202393 C0.44821773 295.24166637 0.4991981 297.72112454 0.56373787 300.20018196 C0.66100439 304.1319404 0.70704212 308.06119589 0.73789978 311.9940033 C0.82997035 323.1732771 0.99612777 334.3503172 1.24975586 345.52709961 C1.40436328 352.367261 1.47339963 359.20467999 1.49764824 366.04650688 C1.52248907 368.64671984 1.57718816 371.24683285 1.66292 373.84575081 C2.30679919 393.67262925 2.30679919 393.67262925 -1.55779839 399.24699783 C-5.25215263 402.99647755 -9.42345596 405.59341522 -14.08697224 407.97850704 C-16.7599156 409.40576956 -19.06128585 411.21538475 -21.41796875 413.109375 C-22.2056665 413.71015869 -22.99336426 414.31094238 -23.80493164 414.92993164 C-24.5911792 415.5305542 -25.37742676 416.13117676 -26.1875 416.75 C-27.06204834 417.41700928 -27.93659668 418.08401855 -28.83764648 418.77124023 C-32.44705831 421.52417053 -36.05532898 424.27859281 -39.66308594 427.03369141 C-50.08810661 434.99409074 -60.53693484 442.91953313 -71.04101562 450.77539062 C-75.57583381 454.17019087 -80.08495384 457.59254324 -84.5625 461.0625 C-90.07355487 465.32006004 -95.65103755 469.48379245 -101.25 473.625 C-102.52145874 474.5687146 -102.52145874 474.5687146 -103.81860352 475.53149414 C-104.60549561 476.1114917 -105.3923877 476.69148926 -106.203125 477.2890625 C-107.26515137 478.07337646 -107.26515137 478.07337646 -108.34863281 478.87353516 C-110 480 -110 480 -111 480 C-111.48097861 429.69743315 -111.85085876 379.39509921 -112.07237192 329.09068397 C-112.09863582 323.14785456 -112.12581668 317.20502968 -112.15356445 311.26220703 C-112.15907297 310.07912993 -112.16458149 308.89605284 -112.17025694 307.67712492 C-112.26156225 288.53661057 -112.4270946 269.39742474 -112.62020872 250.25769776 C-112.81679983 230.60904782 -112.93327715 210.96109215 -112.97585839 191.31149912 C-113.00463295 179.19195341 -113.09539401 167.07616266 -113.2662458 154.95777345 C-113.37751519 146.64030645 -113.41074671 138.32477161 -113.38352893 130.00661492 C-113.3701119 125.21027996 -113.39020396 120.42048734 -113.50331497 115.62532616 C-114.13125087 87.653397 -114.13125087 87.653397 -108.9225862 79.91272545 C-104.08778528 74.86371924 -98.63762961 71.38594955 -92.42278421 68.25924969 C-89.25088998 66.61064772 -86.6775839 64.62158978 -83.91796875 62.359375 C-75.66556521 56.06166365 -67.39908169 49.78503124 -59.08544922 43.56835938 C-50.93590545 37.46692194 -42.85080924 31.28074673 -34.75830078 25.10400391 C-31.94322424 22.95669202 -29.12621157 20.81194477 -26.30859375 18.66796875 C-25.37748779 17.95930664 -24.44638184 17.25064453 -23.48706055 16.52050781 C-21.72183219 15.17710148 -19.9563862 13.83398104 -18.19067383 12.49121094 C-16.97480591 11.56550293 -16.97480591 11.56550293 -15.734375 10.62109375 C-14.95255859 10.0266748 -14.17074219 9.43225586 -13.36523438 8.81982422 C-11.72027 7.55417966 -10.08691423 6.27336226 -8.46289062 4.98095703 C-7.65529297 4.33884277 -6.84769531 3.69672852 -6.015625 3.03515625 C-5.29149414 2.45258057 -4.56736328 1.87000488 -3.82128906 1.26977539 C-2 0 -2 0 0 0 Z " fill="#000000" transform="translate(320,161)"/>
<path d="M0 0 C0.2746554 50.27766631 0.48611002 100.55525682 0.61278395 150.83352574 C0.62779247 156.76906396 0.64332433 162.7046007 0.65917969 168.64013672 C0.66232741 169.82179706 0.66547514 171.00345741 0.66871825 172.22092564 C0.72093687 191.35531802 0.81555286 210.48927785 0.92583355 229.62341361 C1.03804506 249.25627035 1.10470377 268.88890054 1.12906194 288.52206481 C1.14552929 300.63745281 1.19753967 312.75161825 1.2949976 324.86662991 C1.35842161 333.17396366 1.37760347 341.48066525 1.36201653 349.78822355 C1.35432815 354.58208171 1.36612218 359.37380373 1.4304657 364.1672821 C1.48899023 368.55937522 1.49174657 372.9479028 1.45078674 377.34016223 C1.44572753 378.92586601 1.46086106 380.51179476 1.49859819 382.09705751 C1.75642229 393.59979256 1.75642229 393.59979256 -1.17078012 397.59990862 C-4.38868285 400.96378633 -8.09760128 403.47405244 -12 406 C-13.57263057 407.17226181 -15.13951732 408.35236003 -16.6953125 409.546875 C-18.16952515 410.61782549 -19.64611668 411.68550856 -21.125 412.75 C-27.64801319 417.49932077 -34.08355684 422.33914506 -40.4375 427.3125 C-46.12324873 431.76242721 -51.83807516 436.15965168 -57.62890625 440.47265625 C-62.19596796 443.88400676 -66.71885639 447.35369481 -71.25 450.8125 C-79.53690696 457.13513035 -87.85410725 463.4148182 -96.20410156 469.65380859 C-98.0128276 471.00961547 -99.81579896 472.37274422 -101.6171875 473.73828125 C-102.46108032 474.37648804 -102.46108032 474.37648804 -103.32202148 475.02758789 C-104.82907902 476.16795922 -106.33452451 477.31046006 -107.83984375 478.453125 C-110 480 -110 480 -111 480 C-111 419.28 -111 358.56 -111 296 C-154.89 296 -198.78 296 -244 296 C-240.76485078 292.76485078 -238.35148395 290.35940954 -234.734375 287.87109375 C-233.93555908 287.31728027 -233.13674316 286.7634668 -232.3137207 286.19287109 C-231.04467896 285.3239624 -231.04467896 285.3239624 -229.75 284.4375 C-227.94638494 283.1891338 -226.14300326 281.94043036 -224.33984375 280.69140625 C-222.98995361 279.75965576 -222.98995361 279.75965576 -221.61279297 278.80908203 C-217.82859521 276.18892641 -214.06925458 273.53428565 -210.3125 270.875 C-208.91930161 269.89058145 -207.52607255 268.90620629 -206.1328125 267.921875 C-204.75517126 266.94796911 -203.37756699 265.97401092 -202 265 C-192.16665814 258.04732005 -182.31787176 251.11760831 -172.44873047 244.21582031 C-167.06176567 240.44712759 -161.68256886 236.66772808 -156.3125 232.875 C-155.62140137 232.38700928 -154.93030273 231.89901855 -154.21826172 231.39624023 C-150.75363369 228.94873207 -147.2914637 226.49781501 -143.83203125 224.04296875 C-143.17634187 223.5802806 -142.52065248 223.11759245 -141.84509373 222.64088345 C-140.44796109 221.64758708 -139.05757468 220.64466327 -137.67720699 219.62819767 C-133.92260304 216.8990237 -130.22663579 214.54478743 -126.05213928 212.50669861 C-116.73938782 207.69047046 -116.73938782 207.69047046 -110.98237228 199.30556107 C-109.70672296 192.57344199 -109.99145933 185.82841904 -110.35610771 179.01510811 C-110.56227456 175.12189871 -110.64689787 171.24183421 -110.7021637 167.34373474 C-110.83414616 159.07878261 -111.12916979 150.82244728 -111.4375 142.5625 C-111.79217465 132.98558804 -112.07975874 123.41438291 -112.22014046 113.83173943 C-112.30696602 110.01299687 -112.50288871 106.21028061 -112.70445251 102.39613342 C-113.20427945 86.08615689 -113.20427945 86.08615689 -109.25904655 80.56253433 C-105.06071387 76.30059285 -100.31684036 73.15457889 -95.12557697 70.22609615 C-92.31502708 68.60488721 -89.86352557 66.71854043 -87.32421875 64.703125 C-85.77976207 63.55058601 -84.23422539 62.39949255 -82.6875 61.25 C-76.26182635 56.4515473 -69.86999649 51.61751978 -63.5234375 46.71484375 C-52.1289237 37.92044304 -40.66804068 29.20908058 -29.12915039 20.60498047 C-25.19944562 17.66908038 -21.29942858 14.69752061 -17.4140625 11.703125 C-16.455 10.96578125 -15.4959375 10.2284375 -14.5078125 9.46875 C-12.61147495 8.00923817 -10.71815202 6.54579961 -8.828125 5.078125 C-7.96960938 4.418125 -7.11109375 3.758125 -6.2265625 3.078125 C-5.45908691 2.48418945 -4.69161133 1.89025391 -3.90087891 1.27832031 C-2 0 -2 0 0 0 Z " fill="#FF0000" transform="translate(592,161)"/>
</svg>
